<svg xmlns="http://www.w3.org/2000/svg" xmlns:xlink="http://www.w3.org/1999/xlink" className="group">
  <symbol id="information-circle" viewBox="0 0 24 24"><path stroke-linecap="round" stroke-linejoin="round" d="m11.25 11.25.041-.02a.75.75 0 0 1 1.063.852l-.708 2.836a.75.75 0 0 0 1.063.853l.041-.021M21 12a9 9 0 1 1-18 0 9 9 0 0 1 18 0Zm-9-3.75h.008v.008H12V8.25Z" /></symbol>
  <symbol id="light-bulb" viewBox="0 0 24 24"><path stroke-linecap="round" stroke-linejoin="round" d="M12 18v-5.25m0 0a6.01 6.01 0 0 0 1.5-.189m-1.5.189a6.01 6.01 0 0 1-1.5-.189m3.75 7.478a12.06 12.06 0 0 1-4.5 0m3.75 2.383a14.406 14.406 0 0 1-3 0M14.25 18v-.192c0-.983.658-1.823 1.508-2.316a7.5 7.5 0 1 0-7.517 0c.85.493 1.509 1.333 1.509 2.316V18" /></symbol>
  <symbol id="star" viewBox="0 0 24 24"><path stroke-linecap="round" stroke-linejoin="round" d="M11.48 3.499a.562.562 0 0 1 1.04 0l2.125 5.111a.563.563 0 0 0 .475.345l5.518.442c.499.04.701.663.321.988l-4.204 3.602a.563.563 0 0 0-.182.557l1.285 5.385a.562.562 0 0 1-.84.61l-4.725-2.885a.562.562 0 0 0-.586 0L6.982 20.54a.562.562 0 0 1-.84-.61l1.285-5.386a.562.562 0 0 0-.182-.557l-4.204-3.602a.562.562 0 0 1 .321-.988l5.518-.442a.563.563 0 0 0 .475-.345L11.48 3.5Z" /></symbol>
  <symbol id="exclamation-triangle" viewBox="0 0 24 24"><path stroke-linecap="round" stroke-linejoin="round" d="M12 9v3.75m-9.303 3.376c-.866 1.5.217 3.374 1.948 3.374h14.71c1.73 0 2.813-1.874 1.948-3.374L13.949 3.378c-.866-1.5-3.032-1.5-3.898 0L2.697 16.126ZM12 15.75h.007v.008H12v-.008Z" /></symbol>
  <symbol id="shield-exclamation" viewBox="0 0 24 24"><path stroke-linecap="round" stroke-linejoin="round" d="M12 9v3.75m0-10.036A11.959 11.959 0 0 1 3.598 6 11.99 11.99 0 0 0 3 9.75c0 5.592 3.824 10.29 9 11.622 5.176-1.332 9-6.03 9-11.622 0-1.31-.21-2.57-.598-3.75h-.152c-3.196 0-6.1-1.25-8.25-3.286Zm0 13.036h.008v.008H12v-.008Z" /></symbol>
  <symbol id="chevron-down" viewBox="0 0 24 24"><path stroke-linecap="round" stroke-linejoin="round" d="m19.5 8.25-7.5 7.5-7.5-7.5" /></symbol>
  <symbol id="arrow-down-tray" viewBox="0 0 24 24"><path strokeLinecap="round" strokeLinejoin="round" d="M3 16.5v2.25A2.25 2.25 0 0 0 5.25 21h13.5A2.25 2.25 0 0 0 21 18.75V16.5M16.5 12 12 16.5m0 0L7.5 12m4.5 4.5V3" /></symbol>
  <symbol id="arrow-up-right" viewBox="0 0 24 24"><path stroke-linecap="round" stroke-linejoin="round" d="m4.5 19.5 15-15m0 0H8.25m11.25 0v11.25" /></symbol>
  <symbol id="check" viewBox="0 0 24 24"><path stroke-linecap="round" stroke-linejoin="round" d="m4.5 12.75 6 6 9-13.5" /></symbol>
  <symbol id="document-duplicate" viewBox="0 0 24 24"><path stroke-linecap="round" stroke-linejoin="round" d="M15.75 17.25v3.375c0 .621-.504 1.125-1.125 1.125h-9.75a1.125 1.125 0 0 1-1.125-1.125V7.875c0-.621.504-1.125 1.125-1.125H6.75a9.06 9.06 0 0 1 1.5.124m7.5 10.376h3.375c.621 0 1.125-.504 1.125-1.125V11.25c0-4.46-3.243-8.161-7.5-8.876a9.06 9.06 0 0 0-1.5-.124H9.375c-.621 0-1.125.504-1.125 1.125v3.5m7.5 10.375H9.375a1.125 1.125 0 0 1-1.125-1.125v-9.25m12 6.625v-1.875a3.375 3.375 0 0 0-3.375-3.375h-1.5a1.125 1.125 0 0 1-1.125-1.125v-1.5a3.375 3.375 0 0 0-3.375-3.375H9.75" /></symbol>
</svg>
